<svg width="32" height="32" viewBox="0 0 32 32" fill="none" xmlns="http://www.w3.org/2000/svg">
<rect width="32" height="32" rx="6" fill="#4B4EFC"/>
<path fill-rule="evenodd" clip-rule="evenodd" d="M10.7614 16.1118C10.8112 16.2269 10.9087 16.3159 11.0283 16.3558L15.9071 17.9791C15.9682 17.9994 16.032 18.0059 16.0941 17.999C16.1531 17.9925 16.2104 17.9738 16.2623 17.9434L20.4792 15.4741C20.5921 15.408 20.6669 15.2937 20.6823 15.1639C20.6978 15.0342 20.6521 14.9032 20.5584 14.8086L14.7636 8.96056C14.6646 8.86073 14.5243 8.81329 14.3862 8.83356C14.2485 8.85375 14.1305 8.93895 14.0697 9.06221L10.7689 15.7562C10.7143 15.8669 10.7116 15.9966 10.7614 16.1118Z" fill="#FFCC02"/>
<path fill-rule="evenodd" clip-rule="evenodd" d="M16.3283 19.2447C16.3051 19.0833 16.1918 18.947 16.036 18.8926L3.16487 14.4028C2.98636 14.3405 2.79015 14.3989 2.67958 14.5471C2.5691 14.6954 2.56966 14.8995 2.68101 15.052L9.08102 23.8171C9.17777 23.9496 9.3354 24.0136 9.48729 23.9967C9.55256 23.9895 9.61675 23.9672 9.67461 23.929L16.1457 19.6537C16.2809 19.5644 16.3515 19.406 16.3283 19.2447Z" fill="#EFAE07"/>
<path fill-rule="evenodd" clip-rule="evenodd" d="M28.4941 11.5196C28.3477 11.3979 28.1408 11.3827 27.983 11.4818L9.33053 23.1937C9.16168 23.2997 9.09165 23.5085 9.16171 23.6977C9.23173 23.887 9.42312 24.0052 9.62329 23.9838L24.1624 22.4318L24.1645 22.4315C24.3195 22.4142 24.4514 22.3166 24.5092 22.1737L28.6225 12.0137C28.6924 11.8412 28.6404 11.6413 28.4941 11.5196Z" fill="#FFCC02"/>
</svg>
